<?xml version="1.0" standalone="no"?>
<!DOCTYPE svg PUBLIC "-//W3C//DTD SVG 20010904//EN"
 "http://www.w3.org/TR/2001/REC-SVG-20010904/DTD/svg10.dtd">
<svg version="1.0" xmlns="http://www.w3.org/2000/svg"
 width="500.000000pt" height="500.000000pt" viewBox="0 0 500.000000 500.000000"
 preserveAspectRatio="xMidYMid meet">
<metadata>
Created by potrace 1.14, written by Peter Selinger 2001-2017
</metadata>
<g transform="translate(0.000000,500.000000) scale(0.100000,-0.100000)"
fill="#000000" stroke="none">
<path d="M2398 4576 c-108 -31 -203 -112 -252 -216 -29 -60 -31 -73 -31 -170
0 -96 3 -110 29 -165 65 -132 191 -219 331 -228 192 -12 366 117 409 303 43
183 -42 363 -210 446 -63 32 -87 38 -152 40 -44 2 -97 -2 -124 -10z"/>
<path d="M2044 3639 c-42 -12 -100 -66 -124 -114 -19 -39 -19 -65 -17 -870 l2
-830 26 -40 c52 -80 102 -104 214 -105 l70 0 -1 -612 -2 -613 24 -50 c14 -31
38 -60 60 -75 35 -23 47 -25 180 -28 166 -4 211 9 260 74 l29 37 3 634 3 633
62 1 c76 1 85 2 130 23 43 21 71 50 96 102 19 38 20 66 20 844 0 445 -3 822
-8 844 -12 49 -56 104 -107 130 -37 20 -55 21 -464 23 -234 1 -439 -3 -456 -8z"/>
</g>
</svg>
